<svg xmlns="http://www.w3.org/2000/svg" width="32" height="32" viewBox="0 0 32 32"><path d="M32 7.075a13 13 0 0 1-3.769 1.031 6.6 6.6 0 0 0 2.887-3.631 13.2 13.2 0 0 1-4.169 1.594A6.57 6.57 0 0 0 22.155 4a6.563 6.563 0 0 0-6.563 6.563q0 .77.169 1.494A18.64 18.64 0 0 1 2.23 5.195a6.56 6.56 0 0 0-.887 3.3 6.56 6.56 0 0 0 2.919 5.463 6.57 6.57 0 0 1-2.975-.819v.081a6.565 6.565 0 0 0 5.269 6.437 6.6 6.6 0 0 1-2.968.112 6.59 6.59 0 0 0 6.131 4.563 13.17 13.17 0 0 1-9.725 2.719 18.57 18.57 0 0 0 10.069 2.95c12.075 0 18.681-10.006 18.681-18.681q0-.43-.019-.85A13.2 13.2 0 0 0 32 7.076z"/></svg>